<?xml version="1.0" standalone="no"?>
<!DOCTYPE svg PUBLIC "-//W3C//DTD SVG 20010904//EN"
 "http://www.w3.org/TR/2001/REC-SVG-20010904/DTD/svg10.dtd">
<svg version="1.0" xmlns="http://www.w3.org/2000/svg"
 width="700.000000pt" height="700.000000pt" viewBox="0 0 700.000000 700.000000"
 preserveAspectRatio="xMidYMid meet">
<metadata>
Created by potrace 1.14, written by Peter Selinger 2001-2017
</metadata>
<g transform="translate(0.000000,700.000000) scale(0.100000,-0.100000)"
fill="#000000" stroke="none">
<path d="M3280 6994 c-19 -2 -84 -9 -145 -14 -585 -57 -1188 -286 -1679 -638
-222 -160 -517 -440 -690 -657 -416 -520 -673 -1147 -748 -1820 -17 -155 -17
-575 0 -730 49 -438 168 -843 357 -1215 694 -1359 2168 -2114 3670 -1879 1119
175 2081 882 2594 1907 323 645 433 1403 310 2140 -101 608 -368 1183 -770
1662 -122 145 -351 370 -494 484 -510 407 -1117 661 -1775 742 -117 15 -553
27 -630 18z m568 -199 c878 -92 1688 -536 2239 -1227 380 -477 611 -1019 700
-1639 22 -157 25 -671 5 -819 -20 -143 -51 -321 -66 -371 -11 -38 -17 -44 -42
-47 -16 -2 -126 -20 -244 -42 -191 -34 -484 -69 -495 -58 -2 2 14 59 35 126
85 265 115 468 115 782 0 141 -5 273 -13 330 -66 469 -231 870 -516 1250 -82
109 -337 370 -445 455 -471 370 -1031 565 -1621 565 -565 0 -1104 -180 -1565
-522 -136 -101 -404 -368 -501 -498 -278 -372 -437 -747 -509 -1205 -26 -159
-31 -482 -11 -655 25 -212 82 -456 143 -617 5 -14 -4 -15 -83 -9 -146 12 -252
26 -387 52 -71 14 -167 31 -215 37 l-85 13 -13 44 c-47 159 -84 490 -84 758 0
554 124 1061 377 1542 512 975 1481 1635 2573 1754 175 19 528 19 708 1z m22
-790 c505 -78 976 -303 1334 -635 253 -236 425 -465 571 -765 117 -239 189
-473 232 -745 25 -164 25 -557 -1 -725 -21 -138 -72 -344 -113 -460 l-28 -80
-75 -3 c-119 -5 -327 16 -529 53 -278 51 -355 59 -596 58 -233 0 -348 -10
-536 -48 -248 -51 -339 -59 -624 -60 -286 0 -338 5 -605 55 -240 45 -327 54
-575 53 -244 0 -294 -5 -586 -58 -202 -37 -411 -58 -529 -53 l-75 3 -32 90
c-40 114 -87 307 -110 455 -25 162 -25 557 0 720 43 274 117 512 237 755 249
507 647 905 1155 1155 289 142 528 210 895 254 83 10 489 -3 590 -19z m-1267
-3496 c67 -6 205 -26 307 -44 295 -54 340 -58 595 -58 252 0 325 8 640 67 348
65 706 62 1095 -9 102 -19 223 -38 270 -44 274 -32 559 -21 858 34 103 18 210
37 239 41 l52 6 -29 -88 c-17 -49 -34 -94 -38 -99 -6 -10 -160 -42 -372 -77
-50 -9 -180 -13 -395 -12 -348 0 -292 -5 -720 74 -83 16 -170 22 -356 27 -283
7 -386 -2 -659 -52 -240 -45 -349 -55 -590 -55 -241 0 -350 10 -590 55 -271
50 -375 59 -659 52 -186 -5 -273 -11 -356 -27 -383 -71 -391 -72 -647 -77
-286 -6 -414 3 -667 50 l-174 33 -33 94 c-25 72 -30 96 -20 98 15 3 128 -14
328 -52 245 -46 549 -55 808 -25 47 5 171 26 275 45 105 19 233 38 285 43 141
12 415 12 553 0z m70 -380 c45 -5 168 -25 272 -44 229 -42 363 -55 555 -55
193 0 326 13 555 55 285 52 358 59 620 58 257 0 349 -9 631 -63 361 -69 738
-66 1107 9 48 10 87 14 87 10 0 -16 -88 -185 -102 -196 -39 -32 -455 -68 -673
-58 -186 8 -285 20 -503 61 -248 46 -406 58 -642 51 -200 -7 -302 -18 -520
-61 -205 -40 -313 -49 -560 -49 -254 0 -354 9 -585 53 -226 43 -283 50 -495
57 -232 7 -401 -6 -617 -47 -313 -60 -571 -79 -831 -61 -176 12 -351 38 -370
54 -14 11 -102 180 -102 195 0 5 42 1 92 -10 186 -36 297 -49 493 -55 246 -7
379 5 672 58 123 22 278 44 345 49 141 10 451 4 571 -11z"/>
<path d="M3591 6566 c-15 -34 -54 -123 -86 -198 -32 -76 -62 -138 -66 -138 -4
0 -28 31 -54 70 -29 41 -59 73 -74 78 l-26 9 28 14 c36 17 57 57 57 109 0 33
-6 48 -29 71 -28 28 -33 29 -118 29 -88 -1 -220 -14 -230 -23 -2 -3 5 -98 18
-211 l22 -205 61 6 c34 3 62 7 64 8 2 2 -2 40 -8 85 -6 45 -9 85 -6 88 14 14
56 -21 97 -81 l44 -65 145 1 144 2 10 33 c8 27 13 32 30 28 12 -3 45 -6 74 -6
54 0 55 -1 66 -52 6 -27 9 -28 71 -28 45 0 65 4 65 12 0 28 -133 410 -144 413
-6 2 -37 5 -70 8 l-58 4 -27 -61z m-351 -76 c0 -33 -22 -50 -68 -50 -31 0 -42
14 -42 56 0 22 3 24 55 24 54 0 55 0 55 -30z m475 -99 l7 -34 -43 7 c-24 4
-45 8 -46 10 -2 1 9 31 24 66 l28 63 11 -39 c6 -22 15 -55 19 -73z"/>
<path d="M3981 6398 c-24 -106 -46 -198 -48 -204 -4 -10 105 -39 114 -31 1 2
15 49 30 106 14 56 29 98 33 94 4 -4 26 -60 49 -123 l42 -116 61 -16 c34 -10
64 -16 65 -14 3 2 93 393 93 401 0 6 -111 38 -114 33 -2 -1 -13 -46 -26 -98
-12 -52 -26 -101 -30 -108 -4 -8 -27 40 -56 113 -52 135 -54 137 -129 149
l-41 7 -43 -193z"/>
<path d="M2760 6538 c-19 -5 -39 -13 -43 -17 -5 -5 -1 -35 7 -69 9 -33 16 -62
16 -66 0 -5 -29 -14 -101 -31 -26 -6 -28 -3 -49 60 l-22 67 -35 -7 c-63 -11
-85 -24 -79 -43 3 -9 26 -98 52 -197 25 -99 48 -182 50 -184 6 -6 114 21 120
31 3 4 -5 40 -16 79 -12 39 -18 75 -13 79 4 4 36 17 70 28 l61 20 18 -69 c25
-98 23 -96 89 -75 43 13 55 21 51 33 -4 8 -30 96 -58 194 -56 192 -52 186
-118 167z"/>
<path d="M4492 6259 c-46 -106 -81 -192 -80 -193 2 -1 25 -12 52 -24 26 -13
50 -22 51 -20 1 2 22 47 45 101 27 60 46 93 50 85 4 -7 18 -64 31 -127 l24
-115 44 -28 c25 -15 50 -28 55 -28 10 0 166 353 166 373 0 10 -90 48 -99 43
-4 -3 -25 -45 -46 -93 -21 -48 -41 -91 -44 -95 -4 -4 -19 55 -35 131 l-28 139
-47 19 c-25 10 -49 19 -52 21 -3 1 -42 -84 -87 -189z"/>
<path d="M2178 6341 c-54 -18 -108 -56 -135 -94 -23 -34 -28 -50 -26 -96 5
-127 104 -245 206 -244 78 1 171 56 207 123 12 22 19 105 10 113 -3 2 -30 2
-60 0 l-55 -5 0 -44 c0 -49 -16 -71 -60 -80 -77 -15 -158 135 -109 204 11 17
25 22 58 22 23 0 47 -5 52 -10 10 -10 94 43 94 60 0 5 -14 19 -31 31 -34 24
-107 34 -151 20z"/>
<path d="M5253 6187 c-24 -12 -43 -24 -43 -28 0 -14 41 -21 89 -14 69 9 75 17
33 41 l-37 21 -42 -20z"/>
<path d="M1646 6163 c-33 -24 -37 -31 -32 -56 3 -16 6 -36 6 -43 0 -17 11 -18
33 -1 14 10 43 114 34 123 -2 2 -20 -9 -41 -23z"/>
<path d="M5000 6020 l-182 -128 53 -36 52 -35 29 24 29 25 59 -41 c55 -40 58
-43 53 -78 -5 -34 -2 -39 36 -64 22 -15 46 -28 52 -29 8 -2 30 69 64 209 l52
213 -58 34 -58 35 -181 -129z m150 -72 c-7 -29 -14 -56 -17 -60 -5 -9 -75 32
-71 42 4 12 92 80 96 75 2 -2 -1 -28 -8 -57z"/>
<path d="M1680 6049 c-36 -26 -54 -45 -52 -57 8 -44 105 -398 111 -404 3 -4
28 7 54 24 43 28 48 34 41 57 -3 14 -7 31 -8 38 0 6 26 32 59 57 l60 45 23
-22 23 -22 55 30 c31 17 57 33 59 36 3 4 -342 247 -365 256 -3 1 -30 -16 -60
-38z m165 -165 c20 -15 20 -16 -8 -40 -15 -13 -32 -24 -36 -24 -5 0 -17 24
-29 53 -11 28 -24 61 -28 71 -7 19 14 6 101 -60z"/>
<path d="M1291 5726 l-124 -124 28 -37 28 -36 77 76 77 76 6 -167 6 -167 30
-31 31 -31 135 135 c74 74 135 140 135 146 0 6 -11 21 -25 34 l-24 23 -85 -77
c-46 -42 -86 -76 -88 -76 -3 0 -8 74 -11 164 -6 160 -7 165 -32 190 -14 14
-29 26 -33 26 -4 0 -63 -56 -131 -124z"/>
<path d="M5630 5723 c-29 -11 -59 -46 -71 -80 -10 -31 -7 -42 30 -120 48 -100
51 -120 15 -129 -18 -5 -32 0 -50 17 -25 23 -33 72 -13 85 11 6 -67 94 -84 94
-16 0 -49 -90 -42 -119 11 -49 60 -116 110 -149 40 -27 58 -32 105 -32 47 0
62 4 84 25 56 52 55 99 -5 211 -22 39 -39 76 -39 82 0 7 15 12 35 12 29 0 36
-4 41 -25 3 -14 4 -34 1 -45 -4 -14 8 -31 41 -61 43 -40 46 -41 59 -23 23 30
11 103 -23 155 -50 74 -142 123 -194 102z"/>
<path d="M5827 5290 c-112 -81 -165 -126 -160 -134 5 -6 46 -67 92 -133 l84
-122 41 24 c23 14 42 29 44 34 2 5 -20 41 -47 79 -28 38 -51 74 -51 80 0 5 54
49 120 97 66 47 120 92 120 98 0 7 -17 31 -38 55 l-37 43 -168 -121z"/>
<path d="M847 5362 l-28 -40 21 -41 c11 -23 22 -41 24 -41 2 0 11 10 19 23 13
20 13 32 3 81 l-11 59 -28 -41z"/>
<path d="M912 5268 c-28 -42 -32 -53 -20 -63 7 -7 82 -63 167 -124 l154 -110
38 54 c22 29 39 56 39 59 0 4 -288 201 -335 228 -6 4 -25 -16 -43 -44z"/>
<path d="M765 5035 c-15 -24 -24 -48 -22 -52 3 -4 46 -28 96 -53 50 -24 91
-47 91 -50 0 -4 -51 -12 -112 -19 -156 -17 -152 -16 -183 -72 -15 -28 -25 -52
-23 -53 2 -3 289 -156 350 -188 15 -7 23 2 47 49 l29 58 -94 50 c-109 57 -109
57 53 76 l110 12 29 53 c16 29 26 55 24 57 -10 10 -350 177 -359 177 -6 0 -22
-20 -36 -45z"/>
<path d="M6106 4978 c-167 -87 -179 -100 -173 -200 3 -54 11 -79 38 -124 43
-71 78 -94 145 -94 43 0 73 11 183 65 l131 65 -27 55 c-15 30 -30 55 -35 55
-4 0 -62 -27 -129 -60 -67 -33 -128 -60 -135 -60 -27 0 -66 45 -67 79 -2 33 0
35 123 102 69 38 128 70 133 71 7 3 -34 118 -43 118 -3 0 -67 -33 -144 -72z"/>
<path d="M605 4538 c-59 -32 -85 -72 -122 -185 -20 -62 -35 -114 -33 -117 12
-12 395 -125 400 -119 13 15 60 218 60 256 0 70 -46 127 -127 157 -58 22 -146
26 -178 8z m171 -143 c36 -24 45 -47 33 -91 -6 -21 -12 -40 -14 -42 -3 -3
-148 41 -213 63 -10 4 -9 12 4 37 30 59 33 61 103 54 35 -3 74 -12 87 -21z"/>
<path d="M6433 4539 c-40 -12 -40 -18 -8 -128 14 -47 24 -86 22 -87 -2 -2 -70
33 -151 76 -145 79 -149 80 -187 68 -22 -6 -39 -14 -39 -17 0 -8 100 -375 103
-376 9 -6 87 19 87 27 0 6 -14 56 -31 110 -17 55 -28 102 -26 104 3 3 70 -28
150 -67 144 -72 145 -73 187 -60 29 9 40 17 36 27 -3 8 -27 86 -53 174 -26 88
-50 160 -53 159 -3 0 -20 -5 -37 -10z"/>
<path d="M6567 4462 c-29 -30 -33 -55 -17 -97 9 -24 31 -37 85 -51 23 -6 23
-5 13 29 -7 24 -19 37 -34 41 -25 7 -31 20 -14 31 12 7 14 75 2 75 -5 0 -20
-13 -35 -28z"/>
<path d="M461 4024 c-51 -45 -76 -110 -76 -195 0 -87 33 -140 108 -175 86 -40
169 -32 249 23 32 22 41 37 59 97 19 62 20 79 11 130 -20 107 -91 155 -229
156 -81 0 -84 -1 -122 -36z m237 -129 c30 -35 28 -71 -7 -106 -24 -24 -38 -29
-76 -29 -65 0 -109 21 -125 60 -12 29 -11 37 6 69 15 28 27 37 54 41 57 9 122
-7 148 -35z"/>
<path d="M6375 4035 c-104 -13 -190 -24 -191 -24 -1 -2 45 -278 50 -301 8 -29
62 -70 94 -70 41 0 92 32 104 66 l11 32 19 -24 c39 -49 147 -20 162 42 6 24
-8 225 -20 282 -3 13 -11 22 -22 21 -9 -1 -102 -12 -207 -24z m163 -162 c3
-38 0 -44 -23 -55 -34 -15 -51 2 -58 60 l-5 43 41 -3 c42 -3 42 -3 45 -45z
m-163 4 c4 -19 5 -47 3 -63 -2 -24 -8 -29 -35 -32 -34 -3 -36 0 -48 75 -6 41
-6 42 27 46 18 2 36 5 40 5 4 1 10 -13 13 -31z"/>
<path d="M6232 3548 c3 -61 4 -62 37 -72 l33 -10 -6 -50 c-3 -28 -6 -63 -6
-78 0 -22 -5 -28 -22 -28 -40 0 -50 -15 -55 -84 l-6 -66 89 30 c49 17 147 49
217 71 l128 40 -3 71 -3 71 -195 83 c-107 46 -198 84 -203 84 -4 0 -7 -28 -5
-62z m236 -151 c29 -11 49 -23 45 -27 -8 -6 -105 -30 -124 -30 -5 0 -9 21 -9
46 0 40 2 45 18 39 9 -4 41 -16 70 -28z"/>
<path d="M367 3513 c3 -37 6 -69 7 -70 1 -1 66 -16 144 -34 78 -18 142 -36
142 -39 0 -4 -61 -31 -135 -60 l-135 -53 0 -51 c0 -28 4 -56 8 -63 6 -9 60 12
197 77 l190 90 3 72 3 73 -203 59 c-112 33 -208 62 -215 64 -9 3 -11 -13 -6
-65z"/>
<path d="M3080 5050 l0 -430 -430 0 -430 0 0 -420 0 -420 430 0 430 0 0 -430
0 -430 420 0 420 0 0 430 0 430 430 0 430 0 0 420 0 420 -430 0 -430 0 0 430
0 430 -420 0 -420 0 0 -430z"/>
</g>
</svg>
