<svg xmlns="http://www.w3.org/2000/svg"  xmlns:xlink="http://www.w3.org/1999/xlink" width="136" height="136" viewBox="0 0 600 600">
<style>
.b{fill:#16377c;}
.c{stroke:#16377c;}
.r{fill:#da251c;}
.w{fill:#fff;}
.x{stroke:#fff;}
.n{fill:none;}
</style>
<defs>
	<clipPath id="c">
		<circle cy="300" cx="300" r="284"/>
	</clipPath>
	<clipPath id="r">
		<rect x="0" y="365" width="600" height="300"/>
	</clipPath>
</defs>
<circle cy="300" cx="300" r="292" class="c w" style="stroke-width:16;"/>

<circle cy="300" cx="300" r="300" class="b" clip-path="url(#r)" />

<path id="p" class="n x" style="stroke-width:16;" d="M0,360 c50,0 50,10 100,10 c50,0 50,-10 100,-10 c50,0 50,10 100,10 c50,0 50,-10 100,-10 c50,0 50,10 100,10 c50,0 50,-10 100,-10" clip-path="url(#c)"/>

<g class="r">
	<rect width="72" height="220" x="264" y="130" />
	<rect width="220" height="72" x="190" y="204" />
</g>

<circle cy="300" cx="300" r="220" class="c n" style="stroke-width:6;"/>

<g clip-path="url(#c)">
	<use xlink:href="#p" transform="translate(0 32)"/>
	<use xlink:href="#p" transform="translate(0 64)"/>
</g>

<path class="b" d="M310 32L295 67 288 57C288 57 287 56 287 55 286 54 285 54 285 54 284 53 283 53 282 53 283 52 284 51 285 51 287 50 288 48 288 47 289 45 289 44 289 42 289 39 288 37 287 36 286 35 284 34 282 33 280 33 278 33 274 33L256 35 260 71 271 70 269 55 270 55C271 55 272 55 273 56 274 56 274 57 275 58L282 68 295 67 295 67 306 68 308 62 321 63 322 69 334 69 322 33 310 32zM345 35L337 70 347 72 352 53 360 75 371 78 379 43 369 40 364 60 355 37 345 35zM242 38L232 41 235 53 224 56 220 44 210 47 219 82 230 79 226 65 238 61 242 75 252 72 242 38zM274 41C275 41 276 41 277 41 278 42 278 43 278 44 278 44 278 45 278 46 277 46 277 47 276 47 275 48 274 48 273 48L269 48 268 41 273 41C273 41 274 41 274 41zM316 42L319 55 311 54 316 42zM392 47L378 80 387 84 395 66 400 89 409 94 423 61 414 57 406 75 401 51 392 47zM192 56C189 56 186 56 183 58 178 60 175 64 173 68 172 72 173 77 175 82 177 86 179 89 182 91 185 93 188 94 191 94 193 94 196 93 200 91 203 90 205 88 206 86 208 85 209 83 209 80 210 78 210 76 209 73L199 74C200 77 200 79 199 80 199 82 198 83 196 84 194 85 192 85 190 84 188 83 187 81 185 78 184 75 183 72 183 71 184 68 185 66 187 65 188 65 189 65 190 65 191 65 192 65 193 65 194 66 194 66 195 67L203 61C200 58 197 56 194 56 193 56 193 56 192 56zM454 68L446 72 450 74 461 72 454 68zM145 69L138 74 139 82 143 80 145 69zM444 73L413 95 422 101 427 97 437 104 436 110 445 116 454 79 444 73zM149 78L139 85 149 122 158 116 156 110 167 102 171 106 181 100 149 78zM443 84L440 96 433 92 443 84zM149 89L160 97 154 102 149 89zM122 98L100 120 105 126 118 113 119 142 124 147 148 123 143 118 128 132 127 103 122 98zM485 109C485 109 484 109 484 109 482 110 480 110 479 112 477 114 476 116 476 119 476 121 478 125 480 129 482 132 483 134 483 135 483 136 482 137 482 137 481 138 480 138 479 138 478 138 477 137 476 136 474 135 474 133 474 131 474 130 475 129 476 128L468 120C466 123 464 126 464 129 464 133 466 137 470 141 473 144 475 145 477 146 480 147 482 147 484 147 487 147 489 146 490 144 492 143 493 141 493 139 494 138 493 136 493 133 492 131 490 128 488 124 487 122 486 121 486 120 486 119 486 119 487 118 487 118 488 118 489 118 490 118 491 118 492 119 493 120 493 122 493 123 493 124 493 125 492 126L500 133C502 131 503 128 502 125 502 122 500 119 497 115 495 113 492 111 490 110 488 109 487 109 485 109zM514 136L485 157 501 180 509 175 499 161 521 145 514 136zM75 137L70 144 74 151 77 147 75 137zM81 144L75 153 104 174 111 164 81 144zM68 164L63 173 81 182 57 185 52 194 84 211 89 201 72 192 95 189 100 180 68 164zM536 167L516 177C515 178 513 179 511 180 510 181 509 183 509 184 508 186 508 187 508 189 508 191 508 192 509 194 509 196 510 198 511 200 512 202 514 204 515 206 516 207 518 208 520 209 522 209 524 210 526 209 528 209 529 209 531 208L551 198 546 188 526 198C524 199 523 199 521 198 520 198 519 197 518 195 517 193 517 192 517 190 518 189 519 188 521 187L540 177 536 167zM58 210C56 210 54 210 52 211 50 212 48 213 47 215 45 216 44 219 43 222L38 237 73 248 77 232C78 230 78 228 78 225 78 223 78 222 77 220 76 218 75 216 73 215 71 213 69 212 65 211 63 210 60 210 58 210zM555 210L548 212 553 230 527 216 520 218 529 251 537 249 531 229 557 242 564 240 555 210zM566 214L560 221 562 228 571 231 569 225 564 223 567 220 566 214zM56 221C58 221 60 221 62 222 65 222 67 223 68 224 69 225 69 226 70 227 70 228 70 230 69 232L68 235 49 229 50 227C51 224 52 222 54 221 55 221 55 221 56 221zM51 252C46 251 42 252 39 255 36 258 34 262 33 268 32 274 33 279 36 282 39 286 43 288 49 289 53 289 57 289 60 287 63 286 65 284 67 282 68 279 69 276 70 272 70 268 70 265 69 262 68 259 66 257 63 255 61 253 57 252 53 252 52 252 52 252 51 252zM566 252L530 256 533 275C533 276 533 277 534 280 534 282 535 283 535 284 536 285 538 286 539 287 541 288 542 288 544 288 547 287 548 286 550 285 551 284 552 282 552 279 553 281 554 282 555 283 557 284 559 284 561 284 563 284 565 282 567 280 568 278 569 276 568 272L566 252zM49 263C50 262 51 263 52 263 56 263 58 264 60 266 61 267 62 269 62 271 61 274 60 275 59 276 57 278 54 278 51 278 47 277 44 276 43 275 42 273 41 271 41 269 42 267 43 265 44 264 46 263 47 263 49 263zM560 264L561 268C561 270 561 271 560 272 560 273 559 273 558 273 557 274 556 273 555 273 554 272 554 271 554 269L553 264 560 264zM546 265L547 271C547 273 547 274 547 275 546 276 545 276 544 276 543 277 542 276 541 276 541 275 540 274 540 272L539 266 546 265zM534 290L534 301 540 303 539 316 533 317 532 329 569 317 569 305 534 290zM31 293L32 305 58 311 33 321 34 332 68 316 68 304 31 293zM547 306L560 311 547 314 547 306z"/>

<path class="r" d="m242 527c4 3 8 6 11 9-5 9-16 13-26 9-9-3-18-9-19-19-1-11 4-23 13-29 10-6 24-2 32 5 3 3 9 15 3 16-4-1-8-1-12-2 2-8-10-14-16-8-5 6-9 14-6 21 5 7 14 5 18-2zm7-32c-3-1-6-2-9-3-1-4-2-8-4-12 3 1 6 2 8 3 1 2 1 7 3 5 2-1 5-3 7-1 2 1 7 2 3 3-3 2-6 3-9 5zm64 37c5 1 9 3 14 4-2 10-11 18-21 17-9 1-20-2-24-11-5-10-5-23 2-32 7-9 22-10 32-6 4 1 14 11 9 14-4 1-8 2-12 3-1-8-14-9-17-2-2 7-3 16 2 22 7 5 15 0 16-8zm-5-33c-3 0-7 0-10 0-3-3-5-7-8-10 3 0 6 0 9 0 2 1 3 7 5 3 2-2 3-5 6-4 2 0 8-1 4 2-2 3-4 5-6 8zm33 3c5-2 10-3 15-5 2 6 4 12 6 18 3-8 6-16 9-23 6-2 13-5 19-7-4 8-7 16-11 24 9 8 19 15 28 23-6 2-12 4-18 6-6-5-11-11-17-16-1 4-4 7-5 11 1 4 3 7 4 11-5 2-10 3-15 5-6-16-11-31-17-47z"/>

</svg>